<svg width="35" height="35" viewBox="0 0 35 35" fill="none" xmlns="http://www.w3.org/2000/svg">
<path d="M24.4507 2.87656H10.0679C6.09616 2.87656 2.87646 6.09625 2.87646 10.068V24.4507C2.87646 28.4224 6.09616 31.6421 10.0679 31.6421H24.4507C28.4223 31.6421 31.642 28.4224 31.642 24.4507V10.068C31.642 6.09625 28.4223 2.87656 24.4507 2.87656Z" stroke="white" stroke-width="2.87656" stroke-linecap="round" stroke-linejoin="round"/>
<path d="M23.0124 16.3532C23.1899 17.5502 22.9854 18.7727 22.4281 19.8468C21.8707 20.9209 20.9889 21.792 19.908 22.336C18.8271 22.8801 17.6022 23.0694 16.4075 22.8772C15.2128 22.6849 14.1091 22.1209 13.2534 21.2652C12.3978 20.4095 11.8337 19.3058 11.6414 18.1111C11.4492 16.9164 11.6386 15.6915 12.1826 14.6106C12.7266 13.5297 13.5977 12.6479 14.6718 12.0905C15.7459 11.5332 16.9684 11.3287 18.1654 11.5062C19.3864 11.6873 20.5167 12.2562 21.3896 13.1291C22.2624 14.0019 22.8313 15.1322 23.0124 16.3532Z" stroke="white" stroke-width="2.87656" stroke-linecap="round" stroke-linejoin="round"/>
<path d="M25.1699 9.34882H25.1843" stroke="white" stroke-width="2.87656" stroke-linecap="round" stroke-linejoin="round"/>
</svg>
